<svg width="75" height="121" viewBox="0 0 75 121" fill="none" xmlns="http://www.w3.org/2000/svg">
<path fill-rule="evenodd" clip-rule="evenodd" d="M3.00465 1.08355C3.05075 0.81128 2.86741 0.553194 2.59514 0.507096C2.32287 0.460998 2.06478 0.644344 2.01869 0.916611C-0.659623 16.7354 -0.535702 41.4814 8.54699 64.3472C17.6389 87.2362 35.7118 108.241 68.8911 116.485C69.1591 116.552 69.4303 116.389 69.4969 116.121C69.5635 115.853 69.4002 115.581 69.1322 115.515C36.3116 107.359 18.4678 86.614 9.47635 63.978C0.47571 41.3188 0.349631 16.7648 3.00465 1.08355ZM73.838 117.573L74.2883 117.355L74.0708 116.905L71.6106 111.811C71.4905 111.563 71.1916 111.458 70.9429 111.578C70.6942 111.699 70.59 111.997 70.7101 112.246L72.9529 116.89L68.3093 119.133C68.0606 119.253 67.9564 119.552 68.0765 119.8C68.1966 120.049 68.4955 120.153 68.7442 120.033L73.838 117.573Z" fill="#C6BFD9"/>
</svg>
